<svg width="453" height="410" viewBox="0 0 453 410" fill="none" xmlns="http://www.w3.org/2000/svg">
<g clip-path="url(#clip0_42_215)">
<path d="M313.041 408.967H184.504C165.225 408.967 149.54 393.311 149.54 374.068V34.8994C149.54 15.6559 165.225 0 184.504 0H313.041C332.32 0 348.004 15.6559 348.004 34.8994C350.397 171.099 354.477 323.621 348.004 374.068C348.004 393.311 332.32 408.967 313.041 408.967Z" fill="#3F3D56"/>
<path d="M349.797 124.757C348.981 124.757 348.318 125.419 348.318 126.234V173.479C348.318 174.293 348.981 174.955 349.797 174.955C350.613 174.955 351.276 174.293 351.276 173.479V126.234C351.276 125.419 350.613 124.757 349.797 124.757Z" fill="#3F3D56"/>
<path d="M344.677 34.8997V374.062C344.677 390.812 331.616 404.513 315.101 405.576H315.094C314.85 405.591 314.606 405.605 314.354 405.613C313.918 405.635 313.482 405.642 313.038 405.642C313.038 405.642 311.411 405.524 308.438 405.303C305.435 405.081 301.064 404.749 295.614 404.314C293.979 404.188 292.256 404.048 290.437 403.9C286.813 403.605 282.834 403.28 278.567 402.911C276.866 402.771 275.105 402.616 273.308 402.461C264.123 401.671 253.836 400.748 242.986 399.7C241.152 399.53 239.303 399.353 237.439 399.168C236.951 399.117 152.869 378.019 152.869 374.062V34.8997C152.869 17.4559 167.031 3.31921 184.507 3.31921H203.396C206.413 3.31921 208.839 5.66671 209.098 8.67122C209.12 8.87055 209.142 9.06984 209.179 9.26917C209.727 12.2885 212.5 14.3923 215.576 14.3923H281.969C285.045 14.3923 287.819 12.2885 288.366 9.26917C288.403 9.06985 288.425 8.87056 288.447 8.67122C288.706 5.66672 291.132 3.31921 294.149 3.31921H313.038C330.514 3.31921 344.677 17.4559 344.677 34.8997Z" fill="white"/>
<path d="M148.801 89.3232C147.985 89.3232 147.322 89.9854 147.322 90.7997V102.611C147.322 103.425 147.985 104.087 148.801 104.087C149.617 104.087 150.28 103.425 150.28 102.611V90.7997C150.28 89.9854 149.617 89.3232 148.801 89.3232Z" fill="#3F3D56"/>
<path d="M148.801 124.757C147.985 124.757 147.322 125.419 147.322 126.234V149.118C147.322 149.932 147.985 150.594 148.801 150.594C149.617 150.594 150.28 149.932 150.28 149.118V126.234C150.28 125.419 149.617 124.757 148.801 124.757Z" fill="#3F3D56"/>
<path d="M148.801 157.238C147.985 157.238 147.322 157.901 147.322 158.715V181.599C147.322 182.414 147.985 183.076 148.801 183.076C149.617 183.076 150.28 182.414 150.28 181.599V158.715C150.28 157.901 149.617 157.238 148.801 157.238Z" fill="#3F3D56"/>
<path d="M202.91 8.4895H174.565C174.427 8.4895 174.316 8.60065 174.316 8.73777V11.9323C174.316 12.0694 174.427 12.1805 174.565 12.1805H202.91C203.048 12.1805 203.159 12.0694 203.159 11.9323V8.73777C203.159 8.60065 203.048 8.4895 202.91 8.4895Z" fill="#E6E6E6"/>
<path d="M298.823 12.1806C300.457 12.1806 301.782 10.8585 301.782 9.22773C301.782 7.59693 300.457 6.2749 298.823 6.2749C297.189 6.2749 295.865 7.59693 295.865 9.22773C295.865 10.8585 297.189 12.1806 298.823 12.1806Z" fill="#E6E6E6"/>
<path d="M306.958 12.1806C308.592 12.1806 309.917 10.8585 309.917 9.22773C309.917 7.59693 308.592 6.2749 306.958 6.2749C305.325 6.2749 304 7.59693 304 9.22773C304 10.8585 305.325 12.1806 306.958 12.1806Z" fill="#E6E6E6"/>
<path d="M315.094 12.1806C316.727 12.1806 318.052 10.8585 318.052 9.22773C318.052 7.59693 316.727 6.2749 315.094 6.2749C313.46 6.2749 312.135 7.59693 312.135 9.22773C312.135 10.8585 313.46 12.1806 315.094 12.1806Z" fill="#E6E6E6"/>
<path d="M11.4771 409.048C11.4771 409.576 11.9021 410 12.4313 410H452.046C452.575 410 453 409.576 453 409.048C453 408.519 452.575 408.095 452.046 408.095H12.4313C11.9021 408.095 11.4771 408.519 11.4771 409.048Z" fill="#CCCCCC"/>
<path d="M151.646 402.792L142.631 402.792L138.342 368.082L151.647 368.083L151.646 402.792Z" fill="#FFB6B6"/>
<path d="M120.759 402.588C120.478 403.06 120.33 404.583 120.33 405.132C120.33 406.819 121.7 408.186 123.39 408.186H151.308C152.461 408.186 153.396 407.253 153.396 406.103V404.942C153.396 404.942 154.777 401.455 151.933 397.157C151.933 397.157 148.399 400.523 143.119 395.252L141.561 392.436L130.289 400.665L124.041 401.432C122.674 401.6 121.462 401.406 120.759 402.588Z" fill="#2F2E41"/>
<path d="M101.79 354.583L92.7753 354.553L88.5972 319.831L101.903 319.874L101.79 354.583Z" fill="#FFB6B6"/>
<path d="M70.9043 354.281C70.6221 354.752 70.4691 356.274 70.4674 356.823C70.462 358.51 71.8275 359.882 73.5174 359.887L101.436 359.975C102.589 359.979 103.526 359.049 103.53 357.898L103.534 356.738C103.534 356.738 104.926 353.256 102.096 348.949C102.096 348.949 98.5515 352.303 93.2875 347.015L91.7392 344.194L80.4406 352.387L74.1901 353.135C72.8226 353.299 71.6112 353.101 70.9043 354.281Z" fill="#2F2E41"/>
<path d="M138.497 192.076L127.272 192.877C127.272 192.877 89.2706 214.443 86.0635 219.245C82.8563 224.047 78.4464 230.85 82.4554 238.053C86.4644 245.256 83.4132 332.468 83.4132 332.468L102.57 328.143L114.844 236.894L140.502 233.293C140.502 233.293 149.321 252.286 146.114 268C142.907 283.713 141.303 293.317 141.303 293.317L137.294 386.154L152.929 385.753L166.961 299.719L191.014 231.692L159.745 194.878L138.497 192.076Z" fill="#2F2E41"/>
<path d="M193.821 93.6372L170.569 96.0382L168.163 104.041L145.713 116.046L152.929 166.466L147.317 175.27L149.722 184.073C149.722 184.073 143.308 184.873 144.11 189.675L129.677 192.076C129.677 192.076 148.819 195.977 152.879 215.235C156.938 234.493 190.614 236.894 190.614 236.894L217.073 154.461L219.478 105.642L201.037 100.84L193.821 93.6372Z" fill="#E6E6E6"/>
<path d="M181.567 90.6003C191.549 90.6003 199.642 82.5225 199.642 72.558C199.642 62.5935 191.549 54.5156 181.567 54.5156C171.584 54.5156 163.491 62.5935 163.491 72.558C163.491 82.5225 171.584 90.6003 181.567 90.6003Z" fill="#FFB6B6"/>
<path d="M172.172 88.8354C172.172 88.8354 156.137 88.0351 157.74 75.23C153.771 61.5939 157.284 52.7402 169.767 49.6198C169.767 49.6198 172.974 48.8195 173.776 48.8195C184.322 48.8195 189.812 52.0207 189.812 52.0207C189.812 52.0207 189.01 48.851 189.812 49.6355C190.614 50.4201 191.415 52.0207 191.415 52.0207C191.415 52.0207 199.433 56.0223 199.433 64.0255C199.433 72.0287 199.433 68.8274 199.433 68.8274C199.433 68.8274 197.83 68.8274 196.226 64.0255C194.623 59.2236 184.24 62.4249 184.24 62.4249L185.001 64.0255L182.596 63.2252L180.19 65.6261L178.587 64.8258C178.587 64.8258 172.172 64.8258 172.974 64.8258C173.776 64.8258 173.217 70.2647 173.217 70.2647L167.362 76.8306L173.776 88.8354H172.172Z" fill="#2F2E41"/>
<path d="M86.7379 184.357C82.173 186.843 79.7577 191.21 81.3431 194.109C82.9286 197.009 87.9143 197.344 92.4792 194.857C94.4775 193.768 96.0637 192.32 97.0829 190.791L116.293 180.012L111.033 171.121L92.654 182.691C90.815 182.72 88.7361 183.268 86.7379 184.357Z" fill="#FFB6B6"/>
<path d="M151.521 116.42C151.521 116.42 143.991 113.558 141.396 117.003C138.802 120.448 121.662 162.249 121.662 162.249L96.5145 175.358L103.586 187.65L135.968 176.889L157.333 137.886L151.521 116.42Z" fill="#E6E6E6"/>
<path d="M388.989 253.699V338.533C388.989 346.035 382.874 352.138 375.358 352.138H165.289C157.773 352.138 151.658 346.035 151.658 338.533V253.699C151.658 246.197 157.773 240.094 165.289 240.094H375.358C382.874 240.094 388.989 246.197 388.989 253.699Z" fill="white"/>
<path d="M388.989 253.699V338.533C388.989 346.035 382.874 352.138 375.358 352.138H165.289C157.773 352.138 151.658 346.035 151.658 338.533V253.699C151.658 246.197 157.773 240.094 165.289 240.094H375.358C382.874 240.094 388.989 246.197 388.989 253.699ZM375.358 350.538C382.001 350.538 387.385 345.163 387.385 338.533V295.763C387.385 265.902 363.133 241.694 333.217 241.694H165.289C158.647 241.694 153.262 247.069 153.262 253.699V338.533C153.262 345.163 158.647 350.538 165.289 350.538H375.358Z" fill="#3F3D56"/>
<path d="M245.958 291.347H218.52C217.828 291.347 217.265 291.909 217.265 292.599C217.265 293.29 217.828 293.852 218.52 293.852H245.958C246.649 293.852 247.212 293.29 247.212 292.599C247.212 291.909 246.649 291.347 245.958 291.347Z" fill="#00327C"/>
<path d="M287.651 291.347H260.213C259.521 291.347 258.958 291.909 258.958 292.599C258.958 293.29 259.521 293.852 260.213 293.852H287.651C288.343 293.852 288.905 293.29 288.905 292.599C288.905 291.909 288.343 291.347 287.651 291.347Z" fill="#00327C"/>
<path d="M245.958 305.038H218.52C217.828 305.038 217.265 305.599 217.265 306.29C217.265 306.98 217.828 307.542 218.52 307.542H245.958C246.649 307.542 247.212 306.98 247.212 306.29C247.212 305.599 246.649 305.038 245.958 305.038Z" fill="#00327C"/>
<path d="M287.651 305.038H260.213C259.521 305.038 258.958 305.599 258.958 306.29C258.958 306.98 259.521 307.542 260.213 307.542H287.651C288.343 307.542 288.905 306.98 288.905 306.29C288.905 305.599 288.343 305.038 287.651 305.038Z" fill="#00327C"/>
<path d="M330.598 306.29C330.598 305.599 330.036 305.038 329.344 305.038H301.906C301.214 305.038 300.652 305.599 300.652 306.29C300.652 306.98 301.214 307.542 301.906 307.542H329.344C330.036 307.542 330.598 306.98 330.598 306.29Z" fill="#00327C"/>
<path d="M229.922 280.416C230.613 280.416 231.176 279.854 231.176 279.164C231.176 278.473 230.613 277.912 229.922 277.912H202.484C201.792 277.912 201.229 278.473 201.229 279.164C201.229 279.854 201.792 280.416 202.484 280.416H229.922Z" fill="#00327C"/>
<path d="M310.726 279.907H338.164C338.855 279.907 339.418 279.345 339.418 278.654C339.418 277.964 338.855 277.402 338.164 277.402H310.726C310.034 277.402 309.471 277.964 309.471 278.654C309.471 279.345 310.034 279.907 310.726 279.907Z" fill="#00327C"/>
<path d="M241.481 280.17H298.365C299.057 280.17 299.62 279.608 299.62 278.918C299.62 278.227 299.057 277.666 298.365 277.666H241.481C240.789 277.666 240.226 278.227 240.226 278.918C240.226 279.608 240.789 280.17 241.481 280.17Z" fill="#00327C"/>
<path d="M263.862 317.476H236.424C235.732 317.476 235.17 318.037 235.17 318.728C235.17 319.418 235.732 319.98 236.424 319.98H263.862C264.554 319.98 265.116 319.418 265.116 318.728C265.116 318.037 264.554 317.476 263.862 317.476Z" fill="#00327C"/>
<path d="M352.477 253.06V337.893C352.477 345.396 346.362 351.499 338.846 351.499H253.856C246.34 351.499 240.226 345.396 240.226 337.893V253.06C240.226 245.557 246.34 239.454 253.856 239.454H338.846C346.362 239.454 352.477 245.557 352.477 253.06Z" fill="white"/>
<path d="M352.477 253.06V337.893C352.477 345.396 346.362 351.499 338.846 351.499H253.856C246.34 351.499 240.226 345.396 240.226 337.893V253.06C240.226 245.557 246.34 239.454 253.856 239.454H338.846C346.362 239.454 352.477 245.557 352.477 253.06ZM333.574 349.898C343.128 349.898 350.873 342.167 350.873 332.631V295.124C350.873 265.262 326.621 241.055 296.705 241.055H253.856C247.214 241.055 241.83 246.43 241.83 253.06V326.057C241.83 339.224 252.523 349.898 265.714 349.898L333.574 349.898Z" fill="#3F3D56"/>
<path d="M307.665 274.102H280.227C279.536 274.102 278.973 273.54 278.973 272.85C278.973 272.159 279.536 271.598 280.227 271.598H307.665C308.357 271.598 308.919 272.159 308.919 272.85C308.919 273.54 308.357 274.102 307.665 274.102Z" fill="#00327C"/>
<path d="M307.665 300.803H280.227C279.536 300.803 278.973 300.242 278.973 299.551C278.973 298.861 279.536 298.299 280.227 298.299H307.665C308.357 298.299 308.919 298.861 308.919 299.551C308.919 300.242 308.357 300.803 307.665 300.803Z" fill="#00327C"/>
<path d="M294.035 337.618H266.597C265.905 337.618 265.342 337.056 265.342 336.366C265.342 335.675 265.905 335.114 266.597 335.114H294.035C294.726 335.114 295.289 335.675 295.289 336.366C295.289 337.056 294.726 337.618 294.035 337.618Z" fill="#00327C"/>
<path d="M322.389 287.461H265.504C264.812 287.461 264.249 286.9 264.249 286.209C264.249 285.519 264.812 284.957 265.504 284.957H322.389C323.08 284.957 323.643 285.519 323.643 286.209C323.643 286.9 323.08 287.461 322.389 287.461Z" fill="#00327C"/>
<path d="M336.485 206.051C336.485 179.587 314.077 165.029 288.479 158.133C255.661 149.293 231.626 167.182 240.473 206.051C242.478 214.861 247.274 225.149 253.211 233.95H300.319C316.055 223.725 336.485 226.592 336.485 206.051Z" fill="#00327C"/>
<path d="M287.775 256.079C290.454 250.98 293.852 247.301 297.595 244.501H253.472C264.828 260.693 279.889 271.085 287.775 256.079Z" fill="#00327C"/>
<path d="M282.683 177.72C285.516 177.72 287.812 180.012 287.812 182.84V193.079H277.554V182.84C277.554 180.012 279.851 177.72 282.683 177.72ZM290.377 193.079V182.84C290.377 178.599 286.932 175.161 282.683 175.161C278.434 175.161 274.99 178.599 274.99 182.84V193.079C272.157 193.079 269.861 195.371 269.861 198.198V210.997C269.861 213.824 272.157 216.116 274.99 216.116H290.377C293.209 216.116 295.505 213.824 295.505 210.997V198.198C295.505 195.371 293.209 193.079 290.377 193.079ZM274.99 195.639H290.377C291.793 195.639 292.941 196.785 292.941 198.198V210.997C292.941 212.411 291.793 213.557 290.377 213.557H274.99C273.574 213.557 272.425 212.411 272.425 210.997V198.198C272.425 196.785 273.574 195.639 274.99 195.639Z" fill="white"/>
<path d="M209.388 237.329C208.77 242.483 210.932 246.98 214.218 247.373C217.504 247.765 220.669 243.906 221.288 238.752C221.558 236.495 221.296 234.365 220.64 232.65L222.986 210.778L212.68 209.898L211.461 231.553C210.418 233.065 209.659 235.073 209.388 237.329Z" fill="#FFB6B6"/>
<path d="M211.861 106.842C211.861 106.842 223.086 103.641 225.492 108.443C227.897 113.245 233.509 176.47 233.509 176.47L222.685 226.937L210.258 223.689L216.672 172.469L207.852 134.053L211.861 106.842Z" fill="#E6E6E6"/>
<path d="M46.9048 260.375C72.8097 260.375 93.8097 239.414 93.8097 213.557C93.8097 187.699 72.8097 166.738 46.9048 166.738C21 166.738 0 187.699 0 213.557C0 239.414 21 260.375 46.9048 260.375Z" fill="#00327C"/>
<path d="M46.9048 192.597C50.2183 192.597 52.9043 195.278 52.9043 198.586V210.562H40.9054V198.586C40.9054 195.278 43.5914 192.597 46.9048 192.597ZM55.904 210.562V198.586C55.904 193.625 51.875 189.603 46.9048 189.603C41.9347 189.603 37.9056 193.625 37.9056 198.586V210.562C34.5922 210.562 31.9062 213.244 31.9062 216.551V231.522C31.9062 234.829 34.5922 237.51 37.9056 237.51H55.904C59.2174 237.51 61.9035 234.829 61.9035 231.522V216.551C61.9035 213.244 59.2174 210.562 55.904 210.562ZM37.9057 213.557H55.904C57.5607 213.557 58.9038 214.897 58.9038 216.551V231.522C58.9038 233.176 57.5607 234.516 55.904 234.516H37.9057C36.249 234.516 34.9059 233.176 34.9059 231.522V216.551C34.9059 214.897 36.249 213.557 37.9057 213.557Z" fill="white"/>
</g>
<defs>
<clipPath id="clip0_42_215">
<rect width="453" height="410" fill="white"/>
</clipPath>
</defs>
</svg>
